<?xml version="1.0" standalone="no"?><!DOCTYPE svg PUBLIC "-//W3C//DTD SVG 1.1//EN" "http://www.w3.org/Graphics/SVG/1.1/DTD/svg11.dtd"><svg t="1670937078116" class="icon" viewBox="0 0 1024 1024" version="1.1" xmlns="http://www.w3.org/2000/svg" p-id="5310" xmlns:xlink="http://www.w3.org/1999/xlink" width="200" height="200"><path d="M395.636 477.09h512a34.91 34.91 0 1 1 0 69.82h-512a34.91 34.91 0 1 1 0-69.82zM128 162.91a34.91 34.91 0 1 1 0-69.82h791.273a34.91 34.91 0 1 1 0 69.82H128z m791.273 698.18a34.91 34.91 0 1 1 0 69.82H128a34.91 34.91 0 1 1 0-69.82h791.273zM93.09 357.074L294.563 512 93.09 666.903v-309.83z" p-id="5311"></path></svg>