<?xml version="1.0" standalone="no"?><!DOCTYPE svg PUBLIC "-//W3C//DTD SVG 1.1//EN" "http://www.w3.org/Graphics/SVG/1.1/DTD/svg11.dtd"><svg t="1683377843575" class="icon" viewBox="0 0 1024 1024" version="1.1" xmlns="http://www.w3.org/2000/svg" p-id="3602" xmlns:xlink="http://www.w3.org/1999/xlink" width="200" height="200"><path d="M1008 129.7c0 14-11.3 25.3-25.3 25.3L225.3 155c-14 0-25.3-11.3-25.3-25.3l0-0.5c0-14 11.3-25.3 25.3-25.3l757.5 0c14 0 25.3 11.3 25.3 25.3L1008.1 129.7z" fill="#707070" p-id="3603"></path><path d="M1008 508.7c0 14-11.3 25.3-25.3 25.3L225.3 534c-14 0-25.3-11.3-25.3-25.3l0-0.5c0-14 11.3-25.3 25.3-25.3l757.5 0c14 0 25.3 11.3 25.3 25.3L1008.1 508.7z" fill="#707070" p-id="3604"></path><path d="M1008 887.7c0 14-11.3 25.3-25.3 25.3L225.3 913c-14 0-25.3-11.3-25.3-25.3l0-0.5c0-14 11.3-25.3 25.3-25.3l757.5 0c14 0 25.3 11.3 25.3 25.3L1008.1 887.7z" fill="#707070" p-id="3605"></path><path d="M90.5 125.5c0 20.9-17 37.9-37.9 37.9-20.9 0-37.9-17-37.9-37.9s16.9-37.9 37.9-37.9C73.5 87.6 90.5 104.6 90.5 125.5z" fill="#707070" p-id="3606"></path><path d="M90.5 504.5c0 20.9-17 37.9-37.9 37.9-20.9 0-37.9-17-37.9-37.9 0-20.9 16.9-37.9 37.9-37.9C73.5 466.6 90.5 483.5 90.5 504.5z" fill="#707070" p-id="3607"></path><path d="M90.5 883.4c0 20.9-17 37.9-37.9 37.9-20.9 0-37.9-17-37.9-37.9 0-20.9 16.9-37.9 37.9-37.9C73.5 845.5 90.5 862.5 90.5 883.4z" fill="#707070" p-id="3608"></path></svg>